<?xml version="1.0" encoding="utf-8"?>
<svg viewBox="100 100 300 300" xmlns="http://www.w3.org/2000/svg">
  <defs/>
  <rect style="stroke: rgb(0, 0, 0); stroke-linecap: round; stroke-miterlimit: 4.37; stroke-linejoin: round; stroke-dashoffset: 20px; paint-order: fill;" x="101.014" y="101.014" width="297.971" height="297.971" rx="20" ry="20"/>
  <path d="M 306.29 233.81 Q 305.8 235.62 304.48 239 Q 303.15 242.37 301.46 246.66 Q 299.77 250.94 297.72 255.71 Q 295.67 260.47 293.74 265.06 Q 292.89 267.11 291.75 268.07 Q 290.6 269.04 287.1 269.16 L 251.87 269.76 L 247.53 323.33 Q 247.41 324.42 246.92 325.45 Q 246.44 326.47 245.48 327.07 Q 245.11 327.32 242.64 328.46 Q 240.17 329.61 236.43 331.18 Q 232.69 332.74 228.22 334.55 Q 223.76 336.36 219.42 337.87 Q 215.07 339.38 211.45 340.41 Q 207.83 341.43 205.78 341.43 Q 203.37 341.43 201.38 340.53 Q 199.39 339.62 199.39 336.85 Q 199.27 330.81 199.69 323.51 Q 200.11 316.22 200.71 308.67 Q 201.32 301.13 202.04 293.83 Q 202.77 286.53 203.25 280.5 L 204.09 270.37 Q 193.96 270.37 189.61 269.82 Q 185.27 269.28 185.27 266.99 Q 185.27 265.42 187.08 262.89 Q 189.61 259.39 192.81 254.44 Q 196.01 249.49 198.96 244.79 Q 201.92 240.08 204.15 236.46 Q 206.38 232.84 206.99 232 L 209.28 198.82 Q 206.99 198.82 205.3 198.88 Q 203.61 198.94 202.22 199 Q 200.83 199.06 199.63 199.12 Q 198.42 199.18 197.09 199.18 Q 191.3 199.18 188.83 198.52 Q 186.36 197.85 186.36 196.04 Q 186.36 195.2 187.8 192.54 Q 189.25 189.89 191.36 186.45 Q 193.47 183.01 195.95 179.21 Q 198.42 175.41 200.35 172.15 L 207.59 159.85 L 262.49 157.92 Q 273.11 157.55 283.6 157.13 Q 294.1 156.71 302.97 156.35 Q 311.84 155.99 318.23 155.68 Q 324.63 155.38 327.16 155.26 Q 327.28 155.26 327.82 155.32 Q 328.37 155.38 328.97 155.68 Q 329.57 155.99 330.12 156.71 Q 330.66 157.43 330.66 158.76 Q 330.66 159.49 328.97 163.59 Q 327.28 167.69 324.14 175.77 L 318.83 189.77 Q 317.99 191.82 316.9 192.91 Q 315.82 193.99 312.32 194.11 Q 308.22 194.23 303.99 194.47 Q 299.77 194.72 295.31 194.96 L 258.63 196.77 Q 257.9 201.47 257.6 203.77 Q 257.3 206.06 257.24 207.57 Q 257.18 209.07 257.18 210.58 Q 257.18 212.09 257.06 215.35 Q 256.94 217.64 256.76 219.21 Q 256.58 220.78 256.4 222.29 Q 256.22 223.79 256.03 225.48 Q 255.85 227.17 255.73 229.71 Q 263.7 229.46 271.36 229.22 Q 279.02 228.98 285.47 228.74 Q 291.93 228.5 296.63 228.32 Q 301.34 228.14 303.27 228.14 Q 304.24 228.14 305.44 228.86 Q 306.65 229.59 306.65 231.64 Q 306.65 232.6 306.29 233.81 Z" style="fill: rgb(255, 255, 255);"/>
</svg>